<?xml version="1.0" encoding="utf-8"?>
<!-- Generator: Adobe Illustrator 23.0.4, SVG Export Plug-In . SVG Version: 6.00 Build 0)  -->
<svg version="1.1" id="Layer_1" xmlns="http://www.w3.org/2000/svg" xmlns:xlink="http://www.w3.org/1999/xlink" x="0px" y="0px"
	 viewBox="0 0 333.1 47.3" style="enable-background:new 0 0 333.1 47.3;" xml:space="preserve">
<style type="text/css">
	.st0{fill:none;stroke:#BDC4C9;stroke-width:0.5;stroke-miterlimit:10;}
	.st1{fill:#FFFFFF;stroke:#BDC4C9;stroke-width:0.5;stroke-miterlimit:10;}
</style>
<g>
	
		<ellipse transform="matrix(1 -1.601365e-03 1.601365e-03 1 -7.087913e-02 3.472508e-03)" class="st0" cx="2.1" cy="44.3" rx="1.8" ry="1.8"/>
	<path class="st1" d="M5.9,44.5c0,0,42.3,0.9,63.9-38.1"/>
	
		<ellipse transform="matrix(1 -1.601359e-03 1.601359e-03 1 -4.954043e-03 0.1154)" class="st0" cx="72.1" cy="3.2" rx="1.8" ry="1.8"/>
</g>
<g>
	<circle class="st0" cx="331.1" cy="43.7" r="1.8"/>
	<path class="st1" d="M327.2,43.9c0,0-42.3,1.1-64.1-37.9"/>
	<circle class="st0" cx="261.1" cy="2.8" r="1.8"/>
</g>
<g>
	<circle class="st0" cx="165.2" cy="44" r="1.8"/>
	<line class="st0" x1="165.2" y1="40.3" x2="165.2" y2="6.7"/>
	<circle class="st0" cx="165.2" cy="3" r="1.8"/>
</g>
</svg>
